<svg version="1.1" xmlns="http://www.w3.org/2000/svg" width="403" height="152" viewBox="0 0 269 101" preserveAspectRatio="xMidYMid meet"><path d="M6 96c-4.6-4.6-1.8-18.6 5-24.3 4.6-3.9 9.6-4.7 15.1-2.3 1.2.5 2.4-1.1 5.2-7.1 3.5-7.5 6.8-22 11.9-51.7 1.4-8.7 3.4-11.4 6.4-8.5 1.4 1.5 1.4 2.8-.1 15.9-.9 7.8-3.2 20.4-5.1 27.9-3.9 15.2-5.7 36.9-3.5 42.4l1.1 2.8 5.9-4.1c5.7-4 5.9-4.2 6.5-9.7.9-7.7 3.9-14.1 7-15.3 3-1.1 7.3.2 8.2 2.5.8 2.1 2.1 1.9 2.9-.4.8-2.6 3.5-3.5 5.4-1.7 1.3 1.4 1.3 2.3-.2 8.3-.9 3.7-1.5 6.9-1.3 7.1.2.2 1.3-2.5 2.4-6 2.1-6.2 3.7-15 9.1-48.2 2.1-13.1 3.1-17.2 4.5-18 1.3-.9 2-.7 3.2.9 1.7 2.3 1.7 2.1-3.2 31.3-1.9 11.2-3.4 20.8-3.4 21.4 0 .5 1.3-.4 2.9-2.1 3.4-3.6 5-3.8 8.2-1.2 1.9 1.5 2.4 3 2.7 8.5.7 10.8-.4 15.2-4.8 19.6-4.7 4.7-9.8 6-13.5 3.6-1.4-.9-2.5-2.4-2.5-3.4 0-1.1-.6-.6-1.6 1.3-2.3 4.5-4.5 6.5-6.9 6.5-2.8 0-4.5-1.8-4.5-4.9l0-2.5-2.8 2.7c-3.9 3.7-8.6 3.7-10.6 0l-1.4-2.8-2 4.6c-1.1 2.5-3.1 5.3-4.5 6.2-3.4 2.2-9 2.2-10.9 0-2.2-2.5-3.8-8.8-3.8-15.3-.1-4.6-.2-5.2-1.2-3.5-.6 1.1-3.8 5.5-7.1 9.7-8.6 11.2-14.3 14.2-18.7 9.8zm8.7-8.2c5-5.5 8.5-10.7 7.8-11.8-1.1-1.8-5.1-1.1-7.3 1.3-3.7 3.9-6.8 13.7-4.4 13.7.4 0 2.2-1.5 3.9-3.2zm50.8-10 3.8-5.2-2.3-1.8c-2.7-2.2-3.6-2.3-4.4-.2-.9 2.3-2 12.4-1.3 12.4.3 0 2.2-2.3 4.2-5.2zm25.8 3.1c3.1-1.4 4.7-4.9 5.4-11.5.6-5.6-.8-7.9-2.7-4.3-1.4 2.4-6 15-6 16.1 0 1.1.5 1 3.3-.3zM222.6 88.7c-2.4-1.8-3.6-8-2.6-14.1.4-2.8.7-5.2.6-5.2 0-.1-3.5 3.6-7.6 8.2-8.1 9-10.7 10.7-13.3 9.2-1.9-1-2.2-4.7-.7-9.8.5-1.9.6-3.8.1-4.3-.5-.5-1.2.8-1.5 3-1 5-5.1 12-7.6 12.8-4.6 1.5-7.3-1.6-8.6-9.5l-.6-4-2 2.5c-2.1 2.7-4.7 3.2-6.5 1.4-.9-.9-2.1-.4-4.7 1.9-4.3 3.7-6.9 4.6-9.5 3.2-1.6-.8-2.2-.7-3.1 1-1.3 2.4-5.5 2.7-6.4.4-.3-.9-.6-3.1-.6-5 0-4.4-1.1-4.3-3.5.2-2 3.8-5.9 7.4-8.1 7.4-2.2 0-4.4-3-4.4-6.2l0-3-3.1 2.6c-3.4 2.9-4.2 3.1-7 1.5-1.6-.8-2.6-.5-5 1.5-4.9 4.1-8.4 3.3-9.9-2.4-1.7-6.4 1.7-17.7 6-20 2.8-1.5 5.7-.4 7.3 2.6l1.3 2.5 1.2-2.6c1.8-3.9 5.7-3.2 5.7 1-.1 1.7-.5 4.1-.9 5.5-.8 2.2-.4 2.1 2.8-1.2 5.4-5.5 9-4.9 9.8 1.6.3 2.9.4 2.8 4-3.1 4.2-6.7 5.7-7.8 8.5-5.8 1.5 1.1 1.8 2.6 1.7 8.7l-.2 7.3.9-5.5c1.7-9.9 6.3-13.3 12.1-9 3.2 2.3 4.7 1.7 4.8-2 0-.8 1.4-6.3 3-12.3 1.7-5.9 3.5-14.2 4.1-18.5.6-4.2 1.6-8.3 2.4-9.1 1.6-1.6 4.3-.8 5.2 1.5.9 2.5-3.6 29-6.3 36.5-3 8.4-3 8.6.5 4.7 2.4-2.6 3.1-3 4.3-2 1.2.9 2.3.9 4.7.1 3.8-1.3 8.1.1 8.1 2.6 0 1.1.6 1.4 2.4.9 1.8-.4 2.8.1 4.5 2.2 1.1 1.5 2.1 3.3 2.1 4 0 .7 3.3-2.1 7.3-6.2 5.5-5.6 7.9-7.4 10-7.4 4 0 4.8 3 3.1 11.5-1.6 8.4-1.6 9.6-.5 11.4.8 1.2 2.1.6 6.8-2.9 3.2-2.3 7.5-6.1 9.6-8.4l3.8-4.1-2.9 4.5c-1.6 2.5-3.4 6.1-4.1 8.1-2.5 7.8-12.5 13.3-17.5 9.6zm-32.6-11.3c0-.8-.4-1.4-1-1.4-.5 0-1 .9-1 2.1 0 1.1.5 1.7 1 1.4.6-.3 1-1.3 1-2.1zm-72.9-3.5c.6-1.2.4-2.1-.5-2.8-1.1-.9-1.6-.5-2.5 2-.6 1.8-1.1 3.9-1.1 4.8.1 1.3.4 1.2 1.6-.4.9-1.1 2-2.7 2.5-3.6zm48.9-1.5c0-1.4-2.5-2.6-3.4-1.7-.3.4-.6 1.7-.6 3 0 2.1.2 2.2 2 1.1 1.1-.7 2-1.8 2-2.4zM266.2 77.8c-.7-.7-1.2-2.1-1.2-3.2.1-2.1.1-2.1 1.2-.1.6 1.1 1.6 2.3 2.1 2.6.6.4.6.9 0 1.2-.6.4-1.5.1-2.1-.5z" fill="#f1c232" data-c-fill="0"/></svg>